<svg data-v-decfdd8a="" version="1.0" xmlns="http://www.w3.org/2000/svg" xmlns:xlink="http://www.w3.org/1999/xlink" width="100%" height="100%" viewBox="0 0 340.000000 250.000000" preserveAspectRatio="xMidYMid meet" color-interpolation-filters="sRGB" style="margin: auto;">
  <rect data-v-decfdd8a="" x="0" y="0" width="100%" height="100%" fill="#fff" fill-opacity="0" class="background"></rect>
  <g data-v-decfdd8a="" fill="#333" class="icon-text-wrapper icon-svg-group iconsvg" transform="translate(73.25,72.85715103149414)">
    <g class="iconsvg-imagesvg" transform="matrix(1,0,0,1,0,23.31498908996582)" opacity="1">
      <g>
        <rect fill="#333" fill-opacity="0" stroke-width="2" x="0" y="0" width="60" height="57.65571848634521" class="image-rect"></rect>
        <svg x="0" y="0" width="60" height="57.65571848634521" filtersec="colorsb7390633140" class="image-svg-svg primary" style="overflow: visible;">
          <svg xmlns="http://www.w3.org/2000/svg" viewBox="0.022203922271728516 0 104.06559753417969 99.99977111816406">
            <path d="M69.29 0l10.76 12 21.06 23.52a11.6 11.6 0 0 1 0 15.52L80.05 74.58l-10.76 12V61.44l12.09-13.5a6.94 6.94 0 0 0 0-9.28l-12.09-13.5zM34.8 86.6L24 74.58 3 51.06a11.6 11.6 0 0 1 0-15.52L24 12 34.8 0v25.16l-12.09 13.5a6.92 6.92 0 0 0 0 9.28l12.09 13.5z" fill="#6abf4a"></path>
            <path d="M26.66 44.4L52 19.32l25.43 24.54-8.05 8.37-11.49-11.1.19 57.19a11.88 11.88 0 0 1-11.59.33L46.3 41.3 34.8 52.67z" fill="#0d223d"></path>
          </svg>
        </svg>
      </g>
    </g>
    <g transform="translate(67,0)">
      <g data-gra="path-name" fill-rule="" class="tp-name iconsvg-namesvg" opacity="1" transform="matrix(1,0,0,1,0,0)">
        <g transform="scale(1)">
          <g>
            <path d="M1.75 0L17.8 0 17.8-6.71 9.66-6.71 9.66-39.5 1.75-39.5ZM18.95 0L26.63 0 27.09-6.39 31.87-6.39 32.42 0 39.92 0 36.14-39.5 22.76-39.5ZM27.68-12.69L29.15-32.79 29.52-32.79 31.27-12.69ZM51.46 0.37C58.22 0.37 61.07-3.64 61.07-10.58L61.07-39.5 53.39-39.5 53.39-10.9C53.39-8.83 53.3-6.9 51.46-6.9 49.63-6.9 49.53-8.86 49.53-10.9L49.53-39.5 41.85-39.5 41.85-10.58C41.85-3.65 44.69 0.37 51.46 0.37ZM64.1 0L71.83 0 71.83-19.77 75.78 0 83.51 0 83.51-39.5 75.88-39.5 75.88-20.6 72.24-39.5 64.1-39.5ZM96.2 0.37C102.85 0.37 106.18-2.94 106.18-9.56L106.18-17.01 98.22-17.01 98.22-9.89C98.22-7.89 97.61-6.9 96.38-6.9 94.9-6.9 94.55-8.19 94.55-9.89L94.55-29.71C94.55-31.38 94.83-32.6 96.38-32.6 98.01-32.6 98.22-31.48 98.22-29.61L98.22-23.77 106.09-23.77 106.09-30.58C106.09-36.51 102.26-39.87 96.38-39.87 89.29-39.87 86.68-35.36 86.68-28L86.68-9.79C86.68-3.72 90.25 0.37 96.2 0.37ZM108.8 0L116.66 0 116.66-17.93 120.39-17.93 120.39 0 128.25 0 128.25-39.5 120.39-39.5 120.39-25.38 116.66-25.38 116.66-39.5 108.8-39.5Z" transform="translate(-1.75, 39.869998931884766)"></path>
          </g>
          <g data-gra="path-name-1" fill="#333" transform="translate(0,43.23999786376953)">
            <g transform="scale(0.99504)">
              <path d="M16.69 0.56C26.83 0.56 31.9-4.49 31.9-14.58L31.9-25.94 19.77-25.94 19.77-15.08C19.77-12.04 18.84-10.52 16.97-10.52 14.71-10.52 14.16-12.49 14.16-15.08L14.16-45.3C14.16-47.85 14.59-49.71 16.97-49.71 19.44-49.71 19.77-48.01 19.77-45.16L19.77-36.25 31.76-36.25 31.76-46.63C31.76-55.67 25.92-60.79 16.97-60.79 6.15-60.79 2.17-53.92 2.17-42.7L2.17-14.94C2.17-5.67 7.62 0.56 16.69 0.56ZM35.9 0L47.89 0 47.89-27.35 53.57-27.35 53.57 0 65.56 0 65.56-60.23 53.57-60.23 53.57-38.71 47.89-38.71 47.89-60.23 35.9-60.23ZM69.28 0L80.99 0 81.69-9.75 88.98-9.75 89.82 0 101.25 0 95.5-60.23 75.1-60.23ZM82.6-19.35L84.84-49.99 85.4-49.99 88.07-19.35ZM110.09 0L122.15 0 122.15-48.66 129.3-48.66 129.3-60.23 102.93-60.23 102.93-48.66 110.09-48.66Z" transform="translate(-2.169997215270996, 60.790000915527344)"></path>
            </g>
          </g>
        </g>
      </g>
    </g>
  </g>
  <defs v-gra="od"></defs>
</svg>